<?xml version="1.0" encoding="UTF-8" standalone="no"?>
<!DOCTYPE svg PUBLIC "-//W3C//DTD SVG 1.1//EN"
 "http://www.w3.org/Graphics/SVG/1.1/DTD/svg11.dtd">
<!-- Generated by graphviz version 2.40.1 (20161225.0304)
 -->
<!-- Title: dependencies Pages: 1 -->
<svg width="619pt" height="211pt"
 viewBox="0.00 0.00 619.00 211.00" xmlns="http://www.w3.org/2000/svg" xmlns:xlink="http://www.w3.org/1999/xlink">
<g id="graph0" class="graph" transform="scale(1 1) rotate(0) translate(4 207)">
<title>dependencies</title>
<polygon fill="#ffffff" stroke="transparent" points="-4,4 -4,-207 615,-207 615,4 -4,4"/>
<text text-anchor="start" x="284.5091" y="-42.4" font-family="sans-serif" font-weight="bold" font-size="14.00" fill="#000000">Legend</text>
<polygon fill="#ffffb3" stroke="transparent" points="71.5,-10 71.5,-30 91.5,-30 91.5,-10 71.5,-10"/>
<text text-anchor="start" x="95.129" y="-15.4" font-family="sans-serif" font-size="14.00" fill="#000000"> &#160;Declarations</text>
<polygon fill="#8dd3c7" stroke="transparent" points="184.5,-10 184.5,-30 204.5,-30 204.5,-10 184.5,-10"/>
<text text-anchor="start" x="208.2251" y="-15.4" font-family="sans-serif" font-size="14.00" fill="#000000"> &#160;Module</text>
<polygon fill="#80b1d3" stroke="transparent" points="270.5,-10 270.5,-30 290.5,-30 290.5,-10 270.5,-10"/>
<text text-anchor="start" x="294.2812" y="-15.4" font-family="sans-serif" font-size="14.00" fill="#000000"> &#160;Bootstrap</text>
<polygon fill="#fdb462" stroke="transparent" points="367.5,-10 367.5,-30 387.5,-30 387.5,-10 367.5,-10"/>
<text text-anchor="start" x="391.1732" y="-15.4" font-family="sans-serif" font-size="14.00" fill="#000000"> &#160;Providers</text>
<polygon fill="#fb8072" stroke="transparent" points="463.5,-10 463.5,-30 483.5,-30 483.5,-10 463.5,-10"/>
<text text-anchor="start" x="487.2258" y="-15.4" font-family="sans-serif" font-size="14.00" fill="#000000"> &#160;Exports</text>
<g id="clust1" class="cluster">
<title>cluster_ClientModule</title>
<polygon fill="none" stroke="#000000" stroke-dasharray="1,5" points="8,-70 8,-195 603,-195 603,-70 8,-70"/>
</g>
<g id="clust2" class="cluster">
<title>cluster_ClientModule_declarations</title>
<polygon fill="none" stroke="#000000" points="16,-78 16,-130 595,-130 595,-78 16,-78"/>
</g>
<!-- ClientComponent -->
<g id="node1" class="node">
<title>ClientComponent</title>
<polygon fill="#ffffb3" stroke="#000000" points="586.5563,-122 471.4437,-122 471.4437,-86 586.5563,-86 586.5563,-122"/>
<text text-anchor="middle" x="529" y="-99.8" font-family="Times,serif" font-size="14.00" fill="#000000">ClientComponent</text>
</g>
<!-- ClientModule -->
<g id="node5" class="node">
<title>ClientModule</title>
<polygon fill="#8dd3c7" stroke="#000000" points="368.7731,-187 365.7731,-191 344.7731,-191 341.7731,-187 275.2269,-187 275.2269,-151 368.7731,-151 368.7731,-187"/>
<text text-anchor="middle" x="322" y="-164.8" font-family="Times,serif" font-size="14.00" fill="#000000">ClientModule</text>
</g>
<!-- ClientComponent&#45;&gt;ClientModule -->
<g id="edge1" class="edge">
<title>ClientComponent&#45;&gt;ClientModule</title>
<path fill="none" stroke="#000000" d="M529,-122.1061C529,-141.3391 529,-169 529,-169 529,-169 378.9715,-169 378.9715,-169"/>
<polygon fill="#000000" stroke="#000000" points="378.9715,-165.5001 368.9715,-169 378.9715,-172.5001 378.9715,-165.5001"/>
</g>
<!-- ItemComponent -->
<g id="node2" class="node">
<title>ItemComponent</title>
<polygon fill="#ffffb3" stroke="#000000" points="453.4888,-122 346.5112,-122 346.5112,-86 453.4888,-86 453.4888,-122"/>
<text text-anchor="middle" x="400" y="-99.8" font-family="Times,serif" font-size="14.00" fill="#000000">ItemComponent</text>
</g>
<!-- ItemComponent&#45;&gt;ClientModule -->
<g id="edge2" class="edge">
<title>ItemComponent&#45;&gt;ClientModule</title>
<path fill="none" stroke="#000000" d="M357.696,-122.1061C357.696,-122.1061 357.696,-140.991 357.696,-140.991"/>
<polygon fill="#000000" stroke="#000000" points="354.1961,-140.9909 357.696,-150.991 361.1961,-140.991 354.1961,-140.9909"/>
</g>
<!-- ModifierProfileComponent -->
<g id="node3" class="node">
<title>ModifierProfileComponent</title>
<polygon fill="#ffffb3" stroke="#000000" points="328.6937,-122 159.3063,-122 159.3063,-86 328.6937,-86 328.6937,-122"/>
<text text-anchor="middle" x="244" y="-99.8" font-family="Times,serif" font-size="14.00" fill="#000000">ModifierProfileComponent</text>
</g>
<!-- ModifierProfileComponent&#45;&gt;ClientModule -->
<g id="edge3" class="edge">
<title>ModifierProfileComponent&#45;&gt;ClientModule</title>
<path fill="none" stroke="#000000" d="M301.8552,-122.1061C301.8552,-122.1061 301.8552,-140.991 301.8552,-140.991"/>
<polygon fill="#000000" stroke="#000000" points="298.3553,-140.9909 301.8552,-150.991 305.3553,-140.991 298.3553,-140.9909"/>
</g>
<!-- RucheComponent -->
<g id="node4" class="node">
<title>RucheComponent</title>
<polygon fill="#ffffb3" stroke="#000000" points="141.5982,-122 24.4018,-122 24.4018,-86 141.5982,-86 141.5982,-122"/>
<text text-anchor="middle" x="83" y="-99.8" font-family="Times,serif" font-size="14.00" fill="#000000">RucheComponent</text>
</g>
<!-- RucheComponent&#45;&gt;ClientModule -->
<g id="edge4" class="edge">
<title>RucheComponent&#45;&gt;ClientModule</title>
<path fill="none" stroke="#000000" d="M83,-122.1061C83,-141.3391 83,-169 83,-169 83,-169 265.0665,-169 265.0665,-169"/>
<polygon fill="#000000" stroke="#000000" points="265.0665,-172.5001 275.0665,-169 265.0664,-165.5001 265.0665,-172.5001"/>
</g>
</g>
</svg>
