<?xml version="1.0" encoding="UTF-8" standalone="no"?>
<!DOCTYPE svg PUBLIC "-//W3C//DTD SVG 1.1//EN"
 "http://www.w3.org/Graphics/SVG/1.1/DTD/svg11.dtd">
<!-- Generated by graphviz version 2.40.1 (20161225.0304)
 -->
<!-- Title: dependencies Pages: 1 -->
<svg width="628pt" height="211pt"
 viewBox="0.00 0.00 628.00 211.00" xmlns="http://www.w3.org/2000/svg" xmlns:xlink="http://www.w3.org/1999/xlink">
<g id="graph0" class="graph" transform="scale(1 1) rotate(0) translate(4 207)">
<title>dependencies</title>
<polygon fill="#ffffff" stroke="transparent" points="-4,4 -4,-207 624,-207 624,4 -4,4"/>
<text text-anchor="start" x="289.0091" y="-42.4" font-family="sans-serif" font-weight="bold" font-size="14.00" fill="#000000">Legend</text>
<polygon fill="#ffffb3" stroke="transparent" points="76,-10 76,-30 96,-30 96,-10 76,-10"/>
<text text-anchor="start" x="99.629" y="-15.4" font-family="sans-serif" font-size="14.00" fill="#000000"> &#160;Declarations</text>
<polygon fill="#8dd3c7" stroke="transparent" points="189,-10 189,-30 209,-30 209,-10 189,-10"/>
<text text-anchor="start" x="212.7251" y="-15.4" font-family="sans-serif" font-size="14.00" fill="#000000"> &#160;Module</text>
<polygon fill="#80b1d3" stroke="transparent" points="275,-10 275,-30 295,-30 295,-10 275,-10"/>
<text text-anchor="start" x="298.7812" y="-15.4" font-family="sans-serif" font-size="14.00" fill="#000000"> &#160;Bootstrap</text>
<polygon fill="#fdb462" stroke="transparent" points="372,-10 372,-30 392,-30 392,-10 372,-10"/>
<text text-anchor="start" x="395.6732" y="-15.4" font-family="sans-serif" font-size="14.00" fill="#000000"> &#160;Providers</text>
<polygon fill="#fb8072" stroke="transparent" points="468,-10 468,-30 488,-30 488,-10 468,-10"/>
<text text-anchor="start" x="491.7258" y="-15.4" font-family="sans-serif" font-size="14.00" fill="#000000"> &#160;Exports</text>
<g id="clust1" class="cluster">
<title>cluster_EmployeeModule</title>
<polygon fill="none" stroke="#000000" stroke-dasharray="1,5" points="8,-70 8,-195 612,-195 612,-70 8,-70"/>
</g>
<g id="clust2" class="cluster">
<title>cluster_EmployeeModule_declarations</title>
<polygon fill="none" stroke="#000000" points="16,-78 16,-130 604,-130 604,-78 16,-78"/>
</g>
<!-- EmployeeComponent -->
<g id="node1" class="node">
<title>EmployeeComponent</title>
<polygon fill="#ffffb3" stroke="#000000" points="596.0954,-122 457.9046,-122 457.9046,-86 596.0954,-86 596.0954,-122"/>
<text text-anchor="middle" x="527" y="-99.8" font-family="Times,serif" font-size="14.00" fill="#000000">EmployeeComponent</text>
</g>
<!-- EmployeeModule -->
<g id="node5" class="node">
<title>EmployeeModule</title>
<polygon fill="#8dd3c7" stroke="#000000" points="370.3132,-187 367.3132,-191 346.3132,-191 343.3132,-187 253.6868,-187 253.6868,-151 370.3132,-151 370.3132,-187"/>
<text text-anchor="middle" x="312" y="-164.8" font-family="Times,serif" font-size="14.00" fill="#000000">EmployeeModule</text>
</g>
<!-- EmployeeComponent&#45;&gt;EmployeeModule -->
<g id="edge1" class="edge">
<title>EmployeeComponent&#45;&gt;EmployeeModule</title>
<path fill="none" stroke="#000000" d="M527,-122.1061C527,-141.3391 527,-169 527,-169 527,-169 380.1821,-169 380.1821,-169"/>
<polygon fill="#000000" stroke="#000000" points="380.1821,-165.5001 370.1821,-169 380.1821,-172.5001 380.1821,-165.5001"/>
</g>
<!-- NavbarComponent -->
<g id="node2" class="node">
<title>NavbarComponent</title>
<polygon fill="#ffffb3" stroke="#000000" points="440.0297,-122 317.9703,-122 317.9703,-86 440.0297,-86 440.0297,-122"/>
<text text-anchor="middle" x="379" y="-99.8" font-family="Times,serif" font-size="14.00" fill="#000000">NavbarComponent</text>
</g>
<!-- NavbarComponent&#45;&gt;EmployeeModule -->
<g id="edge2" class="edge">
<title>NavbarComponent&#45;&gt;EmployeeModule</title>
<path fill="none" stroke="#000000" d="M343.946,-122.1061C343.946,-122.1061 343.946,-140.991 343.946,-140.991"/>
<polygon fill="#000000" stroke="#000000" points="340.4461,-140.9909 343.946,-150.991 347.4461,-140.991 340.4461,-140.9909"/>
</g>
<!-- NoteComponent -->
<g id="node3" class="node">
<title>NoteComponent</title>
<polygon fill="#ffffb3" stroke="#000000" points="299.0452,-122 190.9548,-122 190.9548,-86 299.0452,-86 299.0452,-122"/>
<text text-anchor="middle" x="245" y="-99.8" font-family="Times,serif" font-size="14.00" fill="#000000">NoteComponent</text>
</g>
<!-- NoteComponent&#45;&gt;EmployeeModule -->
<g id="edge3" class="edge">
<title>NoteComponent&#45;&gt;EmployeeModule</title>
<path fill="none" stroke="#000000" d="M276.5578,-122.1061C276.5578,-122.1061 276.5578,-140.991 276.5578,-140.991"/>
<polygon fill="#000000" stroke="#000000" points="273.0579,-140.9909 276.5578,-150.991 280.0579,-140.991 273.0579,-140.9909"/>
</g>
<!-- NotificationComponent -->
<g id="node4" class="node">
<title>NotificationComponent</title>
<polygon fill="#ffffb3" stroke="#000000" points="172.4818,-122 23.5182,-122 23.5182,-86 172.4818,-86 172.4818,-122"/>
<text text-anchor="middle" x="98" y="-99.8" font-family="Times,serif" font-size="14.00" fill="#000000">NotificationComponent</text>
</g>
<!-- NotificationComponent&#45;&gt;EmployeeModule -->
<g id="edge4" class="edge">
<title>NotificationComponent&#45;&gt;EmployeeModule</title>
<path fill="none" stroke="#000000" d="M98,-122.1061C98,-141.3391 98,-169 98,-169 98,-169 243.8062,-169 243.8062,-169"/>
<polygon fill="#000000" stroke="#000000" points="243.8063,-172.5001 253.8062,-169 243.8062,-165.5001 243.8063,-172.5001"/>
</g>
</g>
</svg>
