<?xml version="1.0" encoding="UTF-8" standalone="no"?>
<!DOCTYPE svg PUBLIC "-//W3C//DTD SVG 1.1//EN"
 "http://www.w3.org/Graphics/SVG/1.1/DTD/svg11.dtd">
<!-- Generated by graphviz version 2.40.1 (20161225.0304)
 -->
<!-- Title: dependencies Pages: 1 -->
<svg width="3617pt" height="363pt"
 viewBox="0.00 0.00 3617.00 363.00" xmlns="http://www.w3.org/2000/svg" xmlns:xlink="http://www.w3.org/1999/xlink">
<g id="graph0" class="graph" transform="scale(1 1) rotate(0) translate(4 359)">
<title>dependencies</title>
<polygon fill="#ffffff" stroke="transparent" points="-4,4 -4,-359 3613,-359 3613,4 -4,4"/>
<text text-anchor="start" x="1783.5091" y="-42.4" font-family="sans-serif" font-weight="bold" font-size="14.00" fill="#000000">Legend</text>
<polygon fill="#ffffb3" stroke="transparent" points="1570.5,-10 1570.5,-30 1590.5,-30 1590.5,-10 1570.5,-10"/>
<text text-anchor="start" x="1594.129" y="-15.4" font-family="sans-serif" font-size="14.00" fill="#000000"> &#160;Declarations</text>
<polygon fill="#8dd3c7" stroke="transparent" points="1683.5,-10 1683.5,-30 1703.5,-30 1703.5,-10 1683.5,-10"/>
<text text-anchor="start" x="1707.2251" y="-15.4" font-family="sans-serif" font-size="14.00" fill="#000000"> &#160;Module</text>
<polygon fill="#80b1d3" stroke="transparent" points="1769.5,-10 1769.5,-30 1789.5,-30 1789.5,-10 1769.5,-10"/>
<text text-anchor="start" x="1793.2812" y="-15.4" font-family="sans-serif" font-size="14.00" fill="#000000"> &#160;Bootstrap</text>
<polygon fill="#fdb462" stroke="transparent" points="1866.5,-10 1866.5,-30 1886.5,-30 1886.5,-10 1866.5,-10"/>
<text text-anchor="start" x="1890.1732" y="-15.4" font-family="sans-serif" font-size="14.00" fill="#000000"> &#160;Providers</text>
<polygon fill="#fb8072" stroke="transparent" points="1962.5,-10 1962.5,-30 1982.5,-30 1982.5,-10 1962.5,-10"/>
<text text-anchor="start" x="1986.2258" y="-15.4" font-family="sans-serif" font-size="14.00" fill="#000000"> &#160;Exports</text>
<g id="clust1" class="cluster">
<title>cluster_AdminModule</title>
<polygon fill="none" stroke="#000000" stroke-dasharray="1,5" points="8,-70 8,-279 2553,-279 2553,-70 8,-70"/>
</g>
<g id="clust2" class="cluster">
<title>cluster_AdminModule_declarations</title>
<polygon fill="none" stroke="#000000" points="16,-78 16,-130 2545,-130 2545,-78 16,-78"/>
</g>
<g id="clust20" class="cluster">
<title>cluster_AdminModule_bootstrap</title>
<polygon fill="none" stroke="#000000" points="1324,-219 1324,-271 1464,-271 1464,-219 1324,-219"/>
</g>
<g id="clust22" class="cluster">
<title>cluster_AppModule</title>
<polygon fill="none" stroke="#000000" stroke-dasharray="1,5" points="2890,-146 2890,-347 3412,-347 3412,-146 2890,-146"/>
</g>
<g id="clust23" class="cluster">
<title>cluster_AppModule_declarations</title>
<polygon fill="none" stroke="#000000" points="3150,-154 3150,-206 3404,-206 3404,-154 3150,-154"/>
</g>
<g id="clust26" class="cluster">
<title>cluster_AppModule_imports</title>
<polygon fill="none" stroke="#000000" points="2898,-154 2898,-206 3142,-206 3142,-154 2898,-154"/>
</g>
<g id="clust28" class="cluster">
<title>cluster_AppModule_bootstrap</title>
<polygon fill="none" stroke="#000000" points="3014,-287 3014,-339 3138,-339 3138,-287 3014,-287"/>
</g>
<g id="clust30" class="cluster">
<title>cluster_ClientModule</title>
<polygon fill="none" stroke="#000000" stroke-dasharray="1,5" points="2561,-70 2561,-138 3156,-138 3156,-70 2561,-70"/>
</g>
<g id="clust31" class="cluster">
<title>cluster_ClientModule_declarations</title>
<polygon fill="none" stroke="#000000" points="2569,-78 2569,-130 3148,-130 3148,-78 2569,-78"/>
</g>
<g id="clust40" class="cluster">
<title>cluster_EmployeeModule</title>
<polygon fill="none" stroke="#000000" stroke-dasharray="1,5" points="3164,-70 3164,-138 3601,-138 3601,-70 3164,-70"/>
</g>
<g id="clust41" class="cluster">
<title>cluster_EmployeeModule_declarations</title>
<polygon fill="none" stroke="#000000" points="3172,-78 3172,-130 3593,-130 3593,-78 3172,-78"/>
</g>
<!-- AdminComponent -->
<g id="node1" class="node">
<title>AdminComponent</title>
<polygon fill="#ffffb3" stroke="#000000" points="2066.2204,-122 1945.7796,-122 1945.7796,-86 2066.2204,-86 2066.2204,-122"/>
<text text-anchor="middle" x="2006" y="-99.8" font-family="Times,serif" font-size="14.00" fill="#000000">AdminComponent</text>
</g>
<!-- AdminModule -->
<g id="node16" class="node">
<title>AdminModule</title>
<polygon fill="#8dd3c7" stroke="#000000" points="1443.4386,-198 1440.4386,-202 1419.4386,-202 1416.4386,-198 1344.5614,-198 1344.5614,-162 1443.4386,-162 1443.4386,-198"/>
<text text-anchor="middle" x="1394" y="-175.8" font-family="Times,serif" font-size="14.00" fill="#000000">AdminModule</text>
</g>
<!-- AdminComponent&#45;&gt;AdminModule -->
<g id="edge1" class="edge">
<title>AdminComponent&#45;&gt;AdminModule</title>
<path fill="none" stroke="#000000" d="M2006,-122.1289C2006,-142.5724 2006,-173 2006,-173 2006,-173 1453.3058,-173 1453.3058,-173"/>
<polygon fill="#000000" stroke="#000000" points="1453.3058,-169.5001 1443.3058,-173 1453.3057,-176.5001 1453.3058,-169.5001"/>
</g>
<!-- AjouteClientComponent -->
<g id="node2" class="node">
<title>AjouteClientComponent</title>
<polygon fill="#ffffb3" stroke="#000000" points="1927.6582,-122 1774.3418,-122 1774.3418,-86 1927.6582,-86 1927.6582,-122"/>
<text text-anchor="middle" x="1851" y="-99.8" font-family="Times,serif" font-size="14.00" fill="#000000">AjouteClientComponent</text>
</g>
<!-- AjouteClientComponent&#45;&gt;AdminModule -->
<g id="edge2" class="edge">
<title>AjouteClientComponent&#45;&gt;AdminModule</title>
<path fill="none" stroke="#000000" d="M1851,-122.0348C1851,-141.5762 1851,-170 1851,-170 1851,-170 1453.3412,-170 1453.3412,-170"/>
<polygon fill="#000000" stroke="#000000" points="1453.3412,-166.5001 1443.3412,-170 1453.3412,-173.5001 1453.3412,-166.5001"/>
</g>
<!-- AjouteRucheRechComponent -->
<g id="node3" class="node">
<title>AjouteRucheRechComponent</title>
<polygon fill="#ffffb3" stroke="#000000" points="1755.9664,-122 1572.0336,-122 1572.0336,-86 1755.9664,-86 1755.9664,-122"/>
<text text-anchor="middle" x="1664" y="-99.8" font-family="Times,serif" font-size="14.00" fill="#000000">AjouteRucheRechComponent</text>
</g>
<!-- AjouteRucheRechComponent&#45;&gt;AdminModule -->
<g id="edge3" class="edge">
<title>AjouteRucheRechComponent&#45;&gt;AdminModule</title>
<path fill="none" stroke="#000000" d="M1664,-122.2667C1664,-140.5552 1664,-166 1664,-166 1664,-166 1453.5222,-166 1453.5222,-166"/>
<polygon fill="#000000" stroke="#000000" points="1453.5222,-162.5001 1443.5222,-166 1453.5221,-169.5001 1453.5222,-162.5001"/>
</g>
<!-- AjouterEmpComponent -->
<g id="node4" class="node">
<title>AjouterEmpComponent</title>
<polygon fill="#ffffb3" stroke="#000000" points="1554.0393,-122 1403.9607,-122 1403.9607,-86 1554.0393,-86 1554.0393,-122"/>
<text text-anchor="middle" x="1479" y="-99.8" font-family="Times,serif" font-size="14.00" fill="#000000">AjouterEmpComponent</text>
</g>
<!-- AjouterEmpComponent&#45;&gt;AdminModule -->
<g id="edge4" class="edge">
<title>AjouterEmpComponent&#45;&gt;AdminModule</title>
<path fill="none" stroke="#000000" d="M1423.4748,-122.0109C1423.4748,-122.0109 1423.4748,-151.855 1423.4748,-151.855"/>
<polygon fill="#000000" stroke="#000000" points="1419.9748,-151.8549 1423.4748,-161.855 1426.9748,-151.855 1419.9748,-151.8549"/>
</g>
<!-- AjouterucheComponent -->
<g id="node5" class="node">
<title>AjouterucheComponent</title>
<polygon fill="#ffffb3" stroke="#000000" points="1385.0253,-122 1234.9747,-122 1234.9747,-86 1385.0253,-86 1385.0253,-122"/>
<text text-anchor="middle" x="1310" y="-99.8" font-family="Times,serif" font-size="14.00" fill="#000000">AjouterucheComponent</text>
</g>
<!-- AjouterucheComponent&#45;&gt;AdminModule -->
<g id="edge5" class="edge">
<title>AjouterucheComponent&#45;&gt;AdminModule</title>
<path fill="none" stroke="#000000" d="M1365.0217,-122.0109C1365.0217,-122.0109 1365.0217,-151.855 1365.0217,-151.855"/>
<polygon fill="#000000" stroke="#000000" points="1361.5218,-151.8549 1365.0217,-161.855 1368.5218,-151.855 1361.5218,-151.8549"/>
</g>
<!-- MaintenancerucheComponent -->
<g id="node6" class="node">
<title>MaintenancerucheComponent</title>
<polygon fill="#ffffb3" stroke="#000000" points="1216.2212,-122 1031.7788,-122 1031.7788,-86 1216.2212,-86 1216.2212,-122"/>
<text text-anchor="middle" x="1124" y="-99.8" font-family="Times,serif" font-size="14.00" fill="#000000">MaintenancerucheComponent</text>
</g>
<!-- MaintenancerucheComponent&#45;&gt;AdminModule -->
<g id="edge6" class="edge">
<title>MaintenancerucheComponent&#45;&gt;AdminModule</title>
<path fill="none" stroke="#000000" d="M1124,-122.2222C1124,-140.8285 1124,-167 1124,-167 1124,-167 1334.4778,-167 1334.4778,-167"/>
<polygon fill="#000000" stroke="#000000" points="1334.4779,-170.5001 1344.4778,-167 1334.4778,-163.5001 1334.4779,-170.5001"/>
</g>
<!-- ModifierEmpComponent -->
<g id="node7" class="node">
<title>ModifierEmpComponent</title>
<polygon fill="#ffffb3" stroke="#000000" points="1013.5379,-122 856.4621,-122 856.4621,-86 1013.5379,-86 1013.5379,-122"/>
<text text-anchor="middle" x="935" y="-99.8" font-family="Times,serif" font-size="14.00" fill="#000000">ModifierEmpComponent</text>
</g>
<!-- ModifierEmpComponent&#45;&gt;AdminModule -->
<g id="edge7" class="edge">
<title>ModifierEmpComponent&#45;&gt;AdminModule</title>
<path fill="none" stroke="#000000" d="M935,-122.308C935,-142.1455 935,-171 935,-171 935,-171 1334.4429,-171 1334.4429,-171"/>
<polygon fill="#000000" stroke="#000000" points="1334.4429,-174.5001 1344.4429,-171 1334.4428,-167.5001 1334.4429,-174.5001"/>
</g>
<!-- ModifierEmployeeComponent -->
<g id="node8" class="node">
<title>ModifierEmployeeComponent</title>
<polygon fill="#ffffb3" stroke="#000000" points="837.8571,-122 650.1429,-122 650.1429,-86 837.8571,-86 837.8571,-122"/>
<text text-anchor="middle" x="744" y="-99.8" font-family="Times,serif" font-size="14.00" fill="#000000">ModifierEmployeeComponent</text>
</g>
<!-- ModifierEmployeeComponent&#45;&gt;AdminModule -->
<g id="edge8" class="edge">
<title>ModifierEmployeeComponent&#45;&gt;AdminModule</title>
<path fill="none" stroke="#000000" d="M744,-122.1686C744,-143.498 744,-176 744,-176 744,-176 1334.6109,-176 1334.6109,-176"/>
<polygon fill="#000000" stroke="#000000" points="1334.6109,-179.5001 1344.6109,-176 1334.6108,-172.5001 1334.6109,-179.5001"/>
</g>
<!-- NotificationComponent -->
<g id="node9" class="node">
<title>NotificationComponent</title>
<polygon fill="#ffffb3" stroke="#000000" points="2537.4818,-122 2388.5182,-122 2388.5182,-86 2537.4818,-86 2537.4818,-122"/>
<text text-anchor="middle" x="2463" y="-99.8" font-family="Times,serif" font-size="14.00" fill="#000000">NotificationComponent</text>
</g>
<!-- NotificationComponent&#45;&gt;AdminModule -->
<g id="edge9" class="edge">
<title>NotificationComponent&#45;&gt;AdminModule</title>
<path fill="none" stroke="#000000" d="M2438.1697,-122.1532C2438.1697,-145.7566 2438.1697,-184 2438.1697,-184 2438.1697,-184 1453.3104,-184 1453.3104,-184"/>
<polygon fill="#000000" stroke="#000000" points="1453.3105,-180.5001 1443.3104,-184 1453.3104,-187.5001 1453.3105,-180.5001"/>
</g>
<!-- EmployeeModule -->
<g id="node22" class="node">
<title>EmployeeModule</title>
<polygon fill="#8dd3c7" stroke="#000000" points="3134.3132,-198 3131.3132,-202 3110.3132,-202 3107.3132,-198 3017.6868,-198 3017.6868,-162 3134.3132,-162 3134.3132,-198"/>
<text text-anchor="middle" x="3076" y="-175.8" font-family="Times,serif" font-size="14.00" fill="#000000">EmployeeModule</text>
</g>
<!-- NotificationComponent&#45;&gt;EmployeeModule -->
<g id="edge30" class="edge">
<title>NotificationComponent&#45;&gt;EmployeeModule</title>
<path fill="none" stroke="#000000" d="M2487.8303,-122.207C2487.8303,-127.5549 2487.8303,-132 2487.8303,-132 2487.8303,-132 3051.7058,-132 3051.7058,-132 3051.7058,-132 3051.7058,-151.8533 3051.7058,-151.8533"/>
<polygon fill="#000000" stroke="#000000" points="3048.2059,-151.8532 3051.7058,-161.8533 3055.2059,-151.8533 3048.2059,-151.8532"/>
</g>
<!-- RechARComponent -->
<g id="node10" class="node">
<title>RechARComponent</title>
<polygon fill="#ffffb3" stroke="#000000" points="447.5422,-122 318.4578,-122 318.4578,-86 447.5422,-86 447.5422,-122"/>
<text text-anchor="middle" x="383" y="-99.8" font-family="Times,serif" font-size="14.00" fill="#000000">RechARComponent</text>
</g>
<!-- RechARComponent&#45;&gt;AdminModule -->
<g id="edge10" class="edge">
<title>RechARComponent&#45;&gt;AdminModule</title>
<path fill="none" stroke="#000000" d="M383,-122.3802C383,-146.2785 383,-185 383,-185 383,-185 1334.553,-185 1334.553,-185"/>
<polygon fill="#000000" stroke="#000000" points="1334.553,-188.5001 1344.553,-185 1334.5529,-181.5001 1334.553,-188.5001"/>
</g>
<!-- RechMEComponent -->
<g id="node11" class="node">
<title>RechMEComponent</title>
<polygon fill="#ffffb3" stroke="#000000" points="300.5954,-122 169.4046,-122 169.4046,-86 300.5954,-86 300.5954,-122"/>
<text text-anchor="middle" x="235" y="-99.8" font-family="Times,serif" font-size="14.00" fill="#000000">RechMEComponent</text>
</g>
<!-- RechMEComponent&#45;&gt;AdminModule -->
<g id="edge11" class="edge">
<title>RechMEComponent&#45;&gt;AdminModule</title>
<path fill="none" stroke="#000000" d="M235,-122.0263C235,-146.9773 235,-189 235,-189 235,-189 1334.57,-189 1334.57,-189"/>
<polygon fill="#000000" stroke="#000000" points="1334.57,-192.5001 1344.57,-189 1334.5699,-185.5001 1334.57,-192.5001"/>
</g>
<!-- RechSCComponent -->
<g id="node12" class="node">
<title>RechSCComponent</title>
<polygon fill="#ffffb3" stroke="#000000" points="151.7176,-122 24.2824,-122 24.2824,-86 151.7176,-86 151.7176,-122"/>
<text text-anchor="middle" x="88" y="-99.8" font-family="Times,serif" font-size="14.00" fill="#000000">RechSCComponent</text>
</g>
<!-- RechSCComponent&#45;&gt;AdminModule -->
<g id="edge12" class="edge">
<title>RechSCComponent&#45;&gt;AdminModule</title>
<path fill="none" stroke="#000000" d="M88,-122.2128C88,-148.5111 88,-194 88,-194 88,-194 1334.398,-194 1334.398,-194"/>
<polygon fill="#000000" stroke="#000000" points="1334.3981,-197.5001 1344.398,-194 1334.398,-190.5001 1334.3981,-197.5001"/>
</g>
<!-- RechSeComponent -->
<g id="node13" class="node">
<title>RechSeComponent</title>
<polygon fill="#ffffb3" stroke="#000000" points="2370.0954,-122 2245.9046,-122 2245.9046,-86 2370.0954,-86 2370.0954,-122"/>
<text text-anchor="middle" x="2308" y="-99.8" font-family="Times,serif" font-size="14.00" fill="#000000">RechSeComponent</text>
</g>
<!-- RechSeComponent&#45;&gt;AdminModule -->
<g id="edge13" class="edge">
<title>RechSeComponent&#45;&gt;AdminModule</title>
<path fill="none" stroke="#000000" d="M2308,-122.0109C2308,-144.4852 2308,-180 2308,-180 2308,-180 1453.4647,-180 1453.4647,-180"/>
<polygon fill="#000000" stroke="#000000" points="1453.4647,-176.5001 1443.4647,-180 1453.4646,-183.5001 1453.4647,-176.5001"/>
</g>
<!-- SuppClientComponent -->
<g id="node14" class="node">
<title>SuppClientComponent</title>
<polygon fill="#ffffb3" stroke="#000000" points="2228.3384,-122 2083.6616,-122 2083.6616,-86 2228.3384,-86 2228.3384,-122"/>
<text text-anchor="middle" x="2156" y="-99.8" font-family="Times,serif" font-size="14.00" fill="#000000">SuppClientComponent</text>
</g>
<!-- SuppClientComponent&#45;&gt;AdminModule -->
<g id="edge14" class="edge">
<title>SuppClientComponent&#45;&gt;AdminModule</title>
<path fill="none" stroke="#000000" d="M2156,-122.0449C2156,-143.6623 2156,-177 2156,-177 2156,-177 1453.4098,-177 1453.4098,-177"/>
<polygon fill="#000000" stroke="#000000" points="1453.4099,-173.5001 1443.4098,-177 1453.4098,-180.5001 1453.4099,-173.5001"/>
</g>
<!-- SupprimerEmpComponent -->
<g id="node15" class="node">
<title>SupprimerEmpComponent</title>
<polygon fill="#ffffb3" stroke="#000000" points="632.3752,-122 465.6248,-122 465.6248,-86 632.3752,-86 632.3752,-122"/>
<text text-anchor="middle" x="549" y="-99.8" font-family="Times,serif" font-size="14.00" fill="#000000">SupprimerEmpComponent</text>
</g>
<!-- SupprimerEmpComponent&#45;&gt;AdminModule -->
<g id="edge15" class="edge">
<title>SupprimerEmpComponent&#45;&gt;AdminModule</title>
<path fill="none" stroke="#000000" d="M549,-122.0109C549,-144.4852 549,-180 549,-180 549,-180 1334.6069,-180 1334.6069,-180"/>
<polygon fill="#000000" stroke="#000000" points="1334.6069,-183.5001 1344.6069,-180 1334.6069,-176.5001 1334.6069,-183.5001"/>
</g>
<!-- AdminComponent  -->
<g id="node17" class="node">
<title>AdminComponent </title>
<polygon fill="#80b1d3" stroke="#000000" points="1455.7205,-263 1332.2795,-263 1332.2795,-227 1455.7205,-227 1455.7205,-263"/>
<text text-anchor="middle" x="1394" y="-240.8" font-family="Times,serif" font-size="14.00" fill="#000000">AdminComponent </text>
</g>
<!-- AdminModule&#45;&gt;AdminComponent  -->
<g id="edge16" class="edge">
<title>AdminModule&#45;&gt;AdminComponent </title>
<path fill="none" stroke="#000000" stroke-dasharray="1,5" d="M1394,-198.1061C1394,-198.1061 1394,-216.991 1394,-216.991"/>
<polygon fill="#000000" stroke="#000000" points="1390.5001,-216.9909 1394,-226.991 1397.5001,-216.991 1390.5001,-216.9909"/>
</g>
<!-- AppModule -->
<g id="node20" class="node">
<title>AppModule</title>
<polygon fill="#8dd3c7" stroke="#000000" points="3117.6571,-263 3114.6571,-267 3093.6571,-267 3090.6571,-263 3034.3429,-263 3034.3429,-227 3117.6571,-227 3117.6571,-263"/>
<text text-anchor="middle" x="3076" y="-240.8" font-family="Times,serif" font-size="14.00" fill="#000000">AppModule</text>
</g>
<!-- AdminModule&#45;&gt;AppModule -->
<g id="edge19" class="edge">
<title>AdminModule&#45;&gt;AppModule</title>
<path fill="none" stroke="#000000" d="M1443.3779,-188C1493.3028,-188 1563.143,-188 1563.143,-188 1563.143,-188 1563.143,-251 1563.143,-251 1563.143,-251 3023.9586,-251 3023.9586,-251"/>
<polygon fill="#000000" stroke="#000000" points="3023.9586,-254.5001 3033.9586,-251 3023.9585,-247.5001 3023.9586,-254.5001"/>
</g>
<!-- AppComponent -->
<g id="node18" class="node">
<title>AppComponent</title>
<polygon fill="#ffffb3" stroke="#000000" points="3395.9399,-198 3290.0601,-198 3290.0601,-162 3395.9399,-162 3395.9399,-198"/>
<text text-anchor="middle" x="3343" y="-175.8" font-family="Times,serif" font-size="14.00" fill="#000000">AppComponent</text>
</g>
<!-- AppComponent&#45;&gt;AppModule -->
<g id="edge17" class="edge">
<title>AppComponent&#45;&gt;AppModule</title>
<path fill="none" stroke="#000000" d="M3343,-198.2843C3343,-219.3211 3343,-251 3343,-251 3343,-251 3127.7188,-251 3127.7188,-251"/>
<polygon fill="#000000" stroke="#000000" points="3127.7188,-247.5001 3117.7188,-251 3127.7187,-254.5001 3127.7188,-247.5001"/>
</g>
<!-- LoginComponent -->
<g id="node19" class="node">
<title>LoginComponent</title>
<polygon fill="#ffffb3" stroke="#000000" points="3272.2758,-198 3157.7242,-198 3157.7242,-162 3272.2758,-162 3272.2758,-198"/>
<text text-anchor="middle" x="3215" y="-175.8" font-family="Times,serif" font-size="14.00" fill="#000000">LoginComponent</text>
</g>
<!-- LoginComponent&#45;&gt;AppModule -->
<g id="edge18" class="edge">
<title>LoginComponent&#45;&gt;AppModule</title>
<path fill="none" stroke="#000000" d="M3215,-198.0225C3215,-215.3734 3215,-239 3215,-239 3215,-239 3127.7046,-239 3127.7046,-239"/>
<polygon fill="#000000" stroke="#000000" points="3127.7046,-235.5001 3117.7046,-239 3127.7045,-242.5001 3127.7046,-235.5001"/>
</g>
<!-- AppComponent  -->
<g id="node23" class="node">
<title>AppComponent </title>
<polygon fill="#80b1d3" stroke="#000000" points="3130.439,-331 3021.561,-331 3021.561,-295 3130.439,-295 3130.439,-331"/>
<text text-anchor="middle" x="3076" y="-308.8" font-family="Times,serif" font-size="14.00" fill="#000000">AppComponent </text>
</g>
<!-- AppModule&#45;&gt;AppComponent  -->
<g id="edge22" class="edge">
<title>AppModule&#45;&gt;AppComponent </title>
<path fill="none" stroke="#000000" stroke-dasharray="1,5" d="M3076,-263.2228C3076,-263.2228 3076,-284.7269 3076,-284.7269"/>
<polygon fill="#000000" stroke="#000000" points="3072.5001,-284.7269 3076,-294.7269 3079.5001,-284.727 3072.5001,-284.7269"/>
</g>
<!-- ClientModule -->
<g id="node21" class="node">
<title>ClientModule</title>
<polygon fill="#8dd3c7" stroke="#000000" points="2999.7731,-198 2996.7731,-202 2975.7731,-202 2972.7731,-198 2906.2269,-198 2906.2269,-162 2999.7731,-162 2999.7731,-198"/>
<text text-anchor="middle" x="2953" y="-175.8" font-family="Times,serif" font-size="14.00" fill="#000000">ClientModule</text>
</g>
<!-- ClientModule&#45;&gt;AppModule -->
<g id="edge20" class="edge">
<title>ClientModule&#45;&gt;AppModule</title>
<path fill="none" stroke="#000000" d="M2953,-198.0225C2953,-215.3734 2953,-239 2953,-239 2953,-239 3024.0144,-239 3024.0144,-239"/>
<polygon fill="#000000" stroke="#000000" points="3024.0144,-242.5001 3034.0144,-239 3024.0144,-235.5001 3024.0144,-242.5001"/>
</g>
<!-- EmployeeModule&#45;&gt;AppModule -->
<g id="edge21" class="edge">
<title>EmployeeModule&#45;&gt;AppModule</title>
<path fill="none" stroke="#000000" d="M3076,-198.1061C3076,-198.1061 3076,-216.991 3076,-216.991"/>
<polygon fill="#000000" stroke="#000000" points="3072.5001,-216.9909 3076,-226.991 3079.5001,-216.991 3072.5001,-216.9909"/>
</g>
<!-- ClientComponent -->
<g id="node24" class="node">
<title>ClientComponent</title>
<polygon fill="#ffffb3" stroke="#000000" points="3139.5563,-122 3024.4437,-122 3024.4437,-86 3139.5563,-86 3139.5563,-122"/>
<text text-anchor="middle" x="3082" y="-99.8" font-family="Times,serif" font-size="14.00" fill="#000000">ClientComponent</text>
</g>
<!-- ClientComponent&#45;&gt;ClientModule -->
<g id="edge23" class="edge">
<title>ClientComponent&#45;&gt;ClientModule</title>
<path fill="none" stroke="#000000" d="M3024.3326,-104C3017.096,-104 3012.169,-104 3012.169,-104 3012.169,-104 3012.169,-180 3012.169,-180 3012.169,-180 3009.9091,-180 3009.9091,-180"/>
<polygon fill="#000000" stroke="#000000" points="3009.9092,-176.5001 2999.9091,-180 3009.9091,-183.5001 3009.9092,-176.5001"/>
</g>
<!-- ItemComponent -->
<g id="node25" class="node">
<title>ItemComponent</title>
<polygon fill="#ffffb3" stroke="#000000" points="3006.4888,-122 2899.5112,-122 2899.5112,-86 3006.4888,-86 3006.4888,-122"/>
<text text-anchor="middle" x="2953" y="-99.8" font-family="Times,serif" font-size="14.00" fill="#000000">ItemComponent</text>
</g>
<!-- ItemComponent&#45;&gt;ClientModule -->
<g id="edge24" class="edge">
<title>ItemComponent&#45;&gt;ClientModule</title>
<path fill="none" stroke="#000000" d="M2953,-122.0109C2953,-122.0109 2953,-151.855 2953,-151.855"/>
<polygon fill="#000000" stroke="#000000" points="2949.5001,-151.8549 2953,-161.855 2956.5001,-151.855 2949.5001,-151.8549"/>
</g>
<!-- ModifierProfileComponent -->
<g id="node26" class="node">
<title>ModifierProfileComponent</title>
<polygon fill="#ffffb3" stroke="#000000" points="2881.6937,-122 2712.3063,-122 2712.3063,-86 2881.6937,-86 2881.6937,-122"/>
<text text-anchor="middle" x="2797" y="-99.8" font-family="Times,serif" font-size="14.00" fill="#000000">ModifierProfileComponent</text>
</g>
<!-- ModifierProfileComponent&#45;&gt;ClientModule -->
<g id="edge25" class="edge">
<title>ModifierProfileComponent&#45;&gt;ClientModule</title>
<path fill="none" stroke="#000000" d="M2797,-122.0265C2797,-147.5093 2797,-191 2797,-191 2797,-191 2896.1949,-191 2896.1949,-191"/>
<polygon fill="#000000" stroke="#000000" points="2896.1949,-194.5001 2906.1949,-191 2896.1948,-187.5001 2896.1949,-194.5001"/>
</g>
<!-- RucheComponent -->
<g id="node27" class="node">
<title>RucheComponent</title>
<polygon fill="#ffffb3" stroke="#000000" points="2694.5982,-122 2577.4018,-122 2577.4018,-86 2694.5982,-86 2694.5982,-122"/>
<text text-anchor="middle" x="2636" y="-99.8" font-family="Times,serif" font-size="14.00" fill="#000000">RucheComponent</text>
</g>
<!-- RucheComponent&#45;&gt;ClientModule -->
<g id="edge26" class="edge">
<title>RucheComponent&#45;&gt;ClientModule</title>
<path fill="none" stroke="#000000" d="M2636,-122.4152C2636,-149.0057 2636,-195 2636,-195 2636,-195 2896.2256,-195 2896.2256,-195"/>
<polygon fill="#000000" stroke="#000000" points="2896.2256,-198.5001 2906.2256,-195 2896.2255,-191.5001 2896.2256,-198.5001"/>
</g>
<!-- EmployeeComponent -->
<g id="node28" class="node">
<title>EmployeeComponent</title>
<polygon fill="#ffffb3" stroke="#000000" points="3318.0954,-122 3179.9046,-122 3179.9046,-86 3318.0954,-86 3318.0954,-122"/>
<text text-anchor="middle" x="3249" y="-99.8" font-family="Times,serif" font-size="14.00" fill="#000000">EmployeeComponent</text>
</g>
<!-- EmployeeComponent&#45;&gt;EmployeeModule -->
<g id="edge27" class="edge">
<title>EmployeeComponent&#45;&gt;EmployeeModule</title>
<path fill="none" stroke="#000000" d="M3179.8823,-104C3162.508,-104 3148.695,-104 3148.695,-104 3148.695,-104 3148.695,-180 3148.695,-180 3148.695,-180 3144.3328,-180 3144.3328,-180"/>
<polygon fill="#000000" stroke="#000000" points="3144.3328,-176.5001 3134.3328,-180 3144.3327,-183.5001 3144.3328,-176.5001"/>
</g>
<!-- NavbarComponent -->
<g id="node29" class="node">
<title>NavbarComponent</title>
<polygon fill="#ffffb3" stroke="#000000" points="3585.0297,-122 3462.9703,-122 3462.9703,-86 3585.0297,-86 3585.0297,-122"/>
<text text-anchor="middle" x="3524" y="-99.8" font-family="Times,serif" font-size="14.00" fill="#000000">NavbarComponent</text>
</g>
<!-- NavbarComponent&#45;&gt;EmployeeModule -->
<g id="edge28" class="edge">
<title>NavbarComponent&#45;&gt;EmployeeModule</title>
<path fill="none" stroke="#000000" d="M3524,-122.1467C3524,-135.7395 3524,-152 3524,-152 3524,-152 3106.6729,-152 3106.6729,-152 3106.6729,-152 3106.6729,-152.9793 3106.6729,-152.9793"/>
<polygon fill="#000000" stroke="#000000" points="3103.173,-151.793 3106.6729,-161.793 3110.173,-151.7931 3103.173,-151.793"/>
</g>
<!-- NoteComponent -->
<g id="node30" class="node">
<title>NoteComponent</title>
<polygon fill="#ffffb3" stroke="#000000" points="3444.0452,-122 3335.9548,-122 3335.9548,-86 3444.0452,-86 3444.0452,-122"/>
<text text-anchor="middle" x="3390" y="-99.8" font-family="Times,serif" font-size="14.00" fill="#000000">NoteComponent</text>
</g>
<!-- NoteComponent&#45;&gt;EmployeeModule -->
<g id="edge29" class="edge">
<title>NoteComponent&#45;&gt;EmployeeModule</title>
<path fill="none" stroke="#000000" d="M3365.7237,-122.1097C3365.7237,-131.897 3365.7237,-142 3365.7237,-142 3365.7237,-142 3079.1893,-142 3079.1893,-142 3079.1893,-142 3079.1893,-151.8903 3079.1893,-151.8903"/>
<polygon fill="#000000" stroke="#000000" points="3075.6894,-151.8903 3079.1893,-161.8903 3082.6894,-151.8904 3075.6894,-151.8903"/>
</g>
</g>
</svg>
