<?xml version="1.0" encoding="UTF-8" standalone="no"?>
<!DOCTYPE svg PUBLIC "-//W3C//DTD SVG 1.1//EN"
 "http://www.w3.org/Graphics/SVG/1.1/DTD/svg11.dtd">
<!-- Generated by graphviz version 2.40.1 (20161225.0304)
 -->
<!-- Title: dependencies Pages: 1 -->
<svg width="2569pt" height="284pt"
 viewBox="0.00 0.00 2569.00 284.00" xmlns="http://www.w3.org/2000/svg" xmlns:xlink="http://www.w3.org/1999/xlink">
<g id="graph0" class="graph" transform="scale(1 1) rotate(0) translate(4 280)">
<title>dependencies</title>
<polygon fill="#ffffff" stroke="transparent" points="-4,4 -4,-280 2565,-280 2565,4 -4,4"/>
<text text-anchor="start" x="1259.5091" y="-42.4" font-family="sans-serif" font-weight="bold" font-size="14.00" fill="#000000">Legend</text>
<polygon fill="#ffffb3" stroke="transparent" points="1046.5,-10 1046.5,-30 1066.5,-30 1066.5,-10 1046.5,-10"/>
<text text-anchor="start" x="1070.129" y="-15.4" font-family="sans-serif" font-size="14.00" fill="#000000"> &#160;Declarations</text>
<polygon fill="#8dd3c7" stroke="transparent" points="1159.5,-10 1159.5,-30 1179.5,-30 1179.5,-10 1159.5,-10"/>
<text text-anchor="start" x="1183.2251" y="-15.4" font-family="sans-serif" font-size="14.00" fill="#000000"> &#160;Module</text>
<polygon fill="#80b1d3" stroke="transparent" points="1245.5,-10 1245.5,-30 1265.5,-30 1265.5,-10 1245.5,-10"/>
<text text-anchor="start" x="1269.2812" y="-15.4" font-family="sans-serif" font-size="14.00" fill="#000000"> &#160;Bootstrap</text>
<polygon fill="#fdb462" stroke="transparent" points="1342.5,-10 1342.5,-30 1362.5,-30 1362.5,-10 1342.5,-10"/>
<text text-anchor="start" x="1366.1732" y="-15.4" font-family="sans-serif" font-size="14.00" fill="#000000"> &#160;Providers</text>
<polygon fill="#fb8072" stroke="transparent" points="1438.5,-10 1438.5,-30 1458.5,-30 1458.5,-10 1438.5,-10"/>
<text text-anchor="start" x="1462.2258" y="-15.4" font-family="sans-serif" font-size="14.00" fill="#000000"> &#160;Exports</text>
<g id="clust1" class="cluster">
<title>cluster_AdminModule</title>
<polygon fill="none" stroke="#000000" stroke-dasharray="1,5" points="8,-70 8,-268 2553,-268 2553,-70 8,-70"/>
</g>
<g id="clust2" class="cluster">
<title>cluster_AdminModule_declarations</title>
<polygon fill="none" stroke="#000000" points="16,-78 16,-130 2545,-130 2545,-78 16,-78"/>
</g>
<g id="clust20" class="cluster">
<title>cluster_AdminModule_bootstrap</title>
<polygon fill="none" stroke="#000000" points="1145,-208 1145,-260 1285,-260 1285,-208 1145,-208"/>
</g>
<!-- AdminComponent -->
<g id="node1" class="node">
<title>AdminComponent</title>
<polygon fill="#ffffb3" stroke="#000000" points="2537.2204,-122 2416.7796,-122 2416.7796,-86 2537.2204,-86 2537.2204,-122"/>
<text text-anchor="middle" x="2477" y="-99.8" font-family="Times,serif" font-size="14.00" fill="#000000">AdminComponent</text>
</g>
<!-- AdminModule -->
<g id="node16" class="node">
<title>AdminModule</title>
<polygon fill="#8dd3c7" stroke="#000000" points="1264.4386,-187 1261.4386,-191 1240.4386,-191 1237.4386,-187 1165.5614,-187 1165.5614,-151 1264.4386,-151 1264.4386,-187"/>
<text text-anchor="middle" x="1215" y="-164.8" font-family="Times,serif" font-size="14.00" fill="#000000">AdminModule</text>
</g>
<!-- AdminComponent&#45;&gt;AdminModule -->
<g id="edge1" class="edge">
<title>AdminComponent&#45;&gt;AdminModule</title>
<path fill="none" stroke="#000000" d="M2477,-122.3228C2477,-145.6602 2477,-183 2477,-183 2477,-183 1274.4719,-183 1274.4719,-183"/>
<polygon fill="#000000" stroke="#000000" points="1274.4719,-179.5001 1264.4719,-183 1274.4719,-186.5001 1274.4719,-179.5001"/>
</g>
<!-- AjouteClientComponent -->
<g id="node2" class="node">
<title>AjouteClientComponent</title>
<polygon fill="#ffffb3" stroke="#000000" points="2398.6582,-122 2245.3418,-122 2245.3418,-86 2398.6582,-86 2398.6582,-122"/>
<text text-anchor="middle" x="2322" y="-99.8" font-family="Times,serif" font-size="14.00" fill="#000000">AjouteClientComponent</text>
</g>
<!-- AjouteClientComponent&#45;&gt;AdminModule -->
<g id="edge2" class="edge">
<title>AjouteClientComponent&#45;&gt;AdminModule</title>
<path fill="none" stroke="#000000" d="M2322,-122.2921C2322,-144.2057 2322,-178 2322,-178 2322,-178 1274.3548,-178 1274.3548,-178"/>
<polygon fill="#000000" stroke="#000000" points="1274.3549,-174.5001 1264.3548,-178 1274.3548,-181.5001 1274.3549,-174.5001"/>
</g>
<!-- AjouteRucheRechComponent -->
<g id="node3" class="node">
<title>AjouteRucheRechComponent</title>
<polygon fill="#ffffb3" stroke="#000000" points="2226.9664,-122 2043.0336,-122 2043.0336,-86 2226.9664,-86 2226.9664,-122"/>
<text text-anchor="middle" x="2135" y="-99.8" font-family="Times,serif" font-size="14.00" fill="#000000">AjouteRucheRechComponent</text>
</g>
<!-- AjouteRucheRechComponent&#45;&gt;AdminModule -->
<g id="edge3" class="edge">
<title>AjouteRucheRechComponent&#45;&gt;AdminModule</title>
<path fill="none" stroke="#000000" d="M2135,-122.0267C2135,-142.7672 2135,-174 2135,-174 2135,-174 1274.4632,-174 1274.4632,-174"/>
<polygon fill="#000000" stroke="#000000" points="1274.4632,-170.5001 1264.4632,-174 1274.4632,-177.5001 1274.4632,-170.5001"/>
</g>
<!-- AjouterEmpComponent -->
<g id="node4" class="node">
<title>AjouterEmpComponent</title>
<polygon fill="#ffffb3" stroke="#000000" points="2025.0393,-122 1874.9607,-122 1874.9607,-86 2025.0393,-86 2025.0393,-122"/>
<text text-anchor="middle" x="1950" y="-99.8" font-family="Times,serif" font-size="14.00" fill="#000000">AjouterEmpComponent</text>
</g>
<!-- AjouterEmpComponent&#45;&gt;AdminModule -->
<g id="edge4" class="edge">
<title>AjouterEmpComponent&#45;&gt;AdminModule</title>
<path fill="none" stroke="#000000" d="M1950,-122.1061C1950,-141.3391 1950,-169 1950,-169 1950,-169 1274.3667,-169 1274.3667,-169"/>
<polygon fill="#000000" stroke="#000000" points="1274.3667,-165.5001 1264.3667,-169 1274.3667,-172.5001 1274.3667,-165.5001"/>
</g>
<!-- AjouterucheComponent -->
<g id="node5" class="node">
<title>AjouterucheComponent</title>
<polygon fill="#ffffb3" stroke="#000000" points="1856.0253,-122 1705.9747,-122 1705.9747,-86 1856.0253,-86 1856.0253,-122"/>
<text text-anchor="middle" x="1781" y="-99.8" font-family="Times,serif" font-size="14.00" fill="#000000">AjouterucheComponent</text>
</g>
<!-- AjouterucheComponent&#45;&gt;AdminModule -->
<g id="edge5" class="edge">
<title>AjouterucheComponent&#45;&gt;AdminModule</title>
<path fill="none" stroke="#000000" d="M1781,-122.302C1781,-140.2699 1781,-165 1781,-165 1781,-165 1274.2387,-165 1274.2387,-165"/>
<polygon fill="#000000" stroke="#000000" points="1274.2387,-161.5001 1264.2387,-165 1274.2386,-168.5001 1274.2387,-161.5001"/>
</g>
<!-- MaintenancerucheComponent -->
<g id="node6" class="node">
<title>MaintenancerucheComponent</title>
<polygon fill="#ffffb3" stroke="#000000" points="1687.2212,-122 1502.7788,-122 1502.7788,-86 1687.2212,-86 1687.2212,-122"/>
<text text-anchor="middle" x="1595" y="-99.8" font-family="Times,serif" font-size="14.00" fill="#000000">MaintenancerucheComponent</text>
</g>
<!-- MaintenancerucheComponent&#45;&gt;AdminModule -->
<g id="edge6" class="edge">
<title>MaintenancerucheComponent&#45;&gt;AdminModule</title>
<path fill="none" stroke="#000000" d="M1595,-122.027C1595,-138.3976 1595,-160 1595,-160 1595,-160 1274.2888,-160 1274.2888,-160"/>
<polygon fill="#000000" stroke="#000000" points="1274.2888,-156.5001 1264.2888,-160 1274.2888,-163.5001 1274.2888,-156.5001"/>
</g>
<!-- ModifierEmpComponent -->
<g id="node7" class="node">
<title>ModifierEmpComponent</title>
<polygon fill="#ffffb3" stroke="#000000" points="1484.5379,-122 1327.4621,-122 1327.4621,-86 1484.5379,-86 1484.5379,-122"/>
<text text-anchor="middle" x="1406" y="-99.8" font-family="Times,serif" font-size="14.00" fill="#000000">ModifierEmpComponent</text>
</g>
<!-- ModifierEmpComponent&#45;&gt;AdminModule -->
<g id="edge7" class="edge">
<title>ModifierEmpComponent&#45;&gt;AdminModule</title>
<path fill="none" stroke="#000000" d="M1406,-122.1871C1406,-137.1824 1406,-156 1406,-156 1406,-156 1274.6844,-156 1274.6844,-156"/>
<polygon fill="#000000" stroke="#000000" points="1274.6844,-152.5001 1264.6844,-156 1274.6844,-159.5001 1274.6844,-152.5001"/>
</g>
<!-- ModifierEmployeeComponent -->
<g id="node8" class="node">
<title>ModifierEmployeeComponent</title>
<polygon fill="#ffffb3" stroke="#000000" points="1308.8571,-122 1121.1429,-122 1121.1429,-86 1308.8571,-86 1308.8571,-122"/>
<text text-anchor="middle" x="1215" y="-99.8" font-family="Times,serif" font-size="14.00" fill="#000000">ModifierEmployeeComponent</text>
</g>
<!-- ModifierEmployeeComponent&#45;&gt;AdminModule -->
<g id="edge8" class="edge">
<title>ModifierEmployeeComponent&#45;&gt;AdminModule</title>
<path fill="none" stroke="#000000" d="M1215,-122.1061C1215,-122.1061 1215,-140.991 1215,-140.991"/>
<polygon fill="#000000" stroke="#000000" points="1211.5001,-140.9909 1215,-150.991 1218.5001,-140.991 1211.5001,-140.9909"/>
</g>
<!-- NotificationComponent -->
<g id="node9" class="node">
<title>NotificationComponent</title>
<polygon fill="#ffffb3" stroke="#000000" points="1103.4818,-122 954.5182,-122 954.5182,-86 1103.4818,-86 1103.4818,-122"/>
<text text-anchor="middle" x="1029" y="-99.8" font-family="Times,serif" font-size="14.00" fill="#000000">NotificationComponent</text>
</g>
<!-- NotificationComponent&#45;&gt;AdminModule -->
<g id="edge9" class="edge">
<title>NotificationComponent&#45;&gt;AdminModule</title>
<path fill="none" stroke="#000000" d="M1029,-122.1871C1029,-137.1824 1029,-156 1029,-156 1029,-156 1155.6437,-156 1155.6437,-156"/>
<polygon fill="#000000" stroke="#000000" points="1155.6438,-159.5001 1165.6437,-156 1155.6437,-152.5001 1155.6438,-159.5001"/>
</g>
<!-- RechARComponent -->
<g id="node10" class="node">
<title>RechARComponent</title>
<polygon fill="#ffffb3" stroke="#000000" points="936.5422,-122 807.4578,-122 807.4578,-86 936.5422,-86 936.5422,-122"/>
<text text-anchor="middle" x="872" y="-99.8" font-family="Times,serif" font-size="14.00" fill="#000000">RechARComponent</text>
</g>
<!-- RechARComponent&#45;&gt;AdminModule -->
<g id="edge10" class="edge">
<title>RechARComponent&#45;&gt;AdminModule</title>
<path fill="none" stroke="#000000" d="M872,-122.027C872,-138.3976 872,-160 872,-160 872,-160 1155.4912,-160 1155.4912,-160"/>
<polygon fill="#000000" stroke="#000000" points="1155.4912,-163.5001 1165.4912,-160 1155.4911,-156.5001 1155.4912,-163.5001"/>
</g>
<!-- RechMEComponent -->
<g id="node11" class="node">
<title>RechMEComponent</title>
<polygon fill="#ffffb3" stroke="#000000" points="789.5954,-122 658.4046,-122 658.4046,-86 789.5954,-86 789.5954,-122"/>
<text text-anchor="middle" x="724" y="-99.8" font-family="Times,serif" font-size="14.00" fill="#000000">RechMEComponent</text>
</g>
<!-- RechMEComponent&#45;&gt;AdminModule -->
<g id="edge11" class="edge">
<title>RechMEComponent&#45;&gt;AdminModule</title>
<path fill="none" stroke="#000000" d="M724,-122.302C724,-140.2699 724,-165 724,-165 724,-165 1155.673,-165 1155.673,-165"/>
<polygon fill="#000000" stroke="#000000" points="1155.673,-168.5001 1165.673,-165 1155.6729,-161.5001 1155.673,-168.5001"/>
</g>
<!-- RechSCComponent -->
<g id="node12" class="node">
<title>RechSCComponent</title>
<polygon fill="#ffffb3" stroke="#000000" points="640.7176,-122 513.2824,-122 513.2824,-86 640.7176,-86 640.7176,-122"/>
<text text-anchor="middle" x="577" y="-99.8" font-family="Times,serif" font-size="14.00" fill="#000000">RechSCComponent</text>
</g>
<!-- RechSCComponent&#45;&gt;AdminModule -->
<g id="edge12" class="edge">
<title>RechSCComponent&#45;&gt;AdminModule</title>
<path fill="none" stroke="#000000" d="M577,-122.1061C577,-141.3391 577,-169 577,-169 577,-169 1155.7326,-169 1155.7326,-169"/>
<polygon fill="#000000" stroke="#000000" points="1155.7327,-172.5001 1165.7326,-169 1155.7326,-165.5001 1155.7327,-172.5001"/>
</g>
<!-- RechSeComponent -->
<g id="node13" class="node">
<title>RechSeComponent</title>
<polygon fill="#ffffb3" stroke="#000000" points="495.0954,-122 370.9046,-122 370.9046,-86 495.0954,-86 495.0954,-122"/>
<text text-anchor="middle" x="433" y="-99.8" font-family="Times,serif" font-size="14.00" fill="#000000">RechSeComponent</text>
</g>
<!-- RechSeComponent&#45;&gt;AdminModule -->
<g id="edge13" class="edge">
<title>RechSeComponent&#45;&gt;AdminModule</title>
<path fill="none" stroke="#000000" d="M433,-122.0267C433,-142.7672 433,-174 433,-174 433,-174 1155.4891,-174 1155.4891,-174"/>
<polygon fill="#000000" stroke="#000000" points="1155.4892,-177.5001 1165.4891,-174 1155.4891,-170.5001 1155.4892,-177.5001"/>
</g>
<!-- SuppClientComponent -->
<g id="node14" class="node">
<title>SuppClientComponent</title>
<polygon fill="#ffffb3" stroke="#000000" points="353.3384,-122 208.6616,-122 208.6616,-86 353.3384,-86 353.3384,-122"/>
<text text-anchor="middle" x="281" y="-99.8" font-family="Times,serif" font-size="14.00" fill="#000000">SuppClientComponent</text>
</g>
<!-- SuppClientComponent&#45;&gt;AdminModule -->
<g id="edge14" class="edge">
<title>SuppClientComponent&#45;&gt;AdminModule</title>
<path fill="none" stroke="#000000" d="M281,-122.2921C281,-144.2057 281,-178 281,-178 281,-178 1155.7718,-178 1155.7718,-178"/>
<polygon fill="#000000" stroke="#000000" points="1155.7719,-181.5001 1165.7718,-178 1155.7718,-174.5001 1155.7719,-181.5001"/>
</g>
<!-- SupprimerEmpComponent -->
<g id="node15" class="node">
<title>SupprimerEmpComponent</title>
<polygon fill="#ffffb3" stroke="#000000" points="190.3752,-122 23.6248,-122 23.6248,-86 190.3752,-86 190.3752,-122"/>
<text text-anchor="middle" x="107" y="-99.8" font-family="Times,serif" font-size="14.00" fill="#000000">SupprimerEmpComponent</text>
</g>
<!-- SupprimerEmpComponent&#45;&gt;AdminModule -->
<g id="edge15" class="edge">
<title>SupprimerEmpComponent&#45;&gt;AdminModule</title>
<path fill="none" stroke="#000000" d="M107,-122.3228C107,-145.6602 107,-183 107,-183 107,-183 1155.6006,-183 1155.6006,-183"/>
<polygon fill="#000000" stroke="#000000" points="1155.6006,-186.5001 1165.6006,-183 1155.6006,-179.5001 1155.6006,-186.5001"/>
</g>
<!-- AdminComponent  -->
<g id="node17" class="node">
<title>AdminComponent </title>
<polygon fill="#80b1d3" stroke="#000000" points="1276.7205,-252 1153.2795,-252 1153.2795,-216 1276.7205,-216 1276.7205,-252"/>
<text text-anchor="middle" x="1215" y="-229.8" font-family="Times,serif" font-size="14.00" fill="#000000">AdminComponent </text>
</g>
<!-- AdminModule&#45;&gt;AdminComponent  -->
<g id="edge16" class="edge">
<title>AdminModule&#45;&gt;AdminComponent </title>
<path fill="none" stroke="#000000" stroke-dasharray="1,5" d="M1215,-187.1061C1215,-187.1061 1215,-205.991 1215,-205.991"/>
<polygon fill="#000000" stroke="#000000" points="1211.5001,-205.9909 1215,-215.991 1218.5001,-205.991 1211.5001,-205.9909"/>
</g>
</g>
</svg>
